<?xml version="1.0" encoding="UTF-8"?> <svg xmlns="http://www.w3.org/2000/svg" xmlns:xlink="http://www.w3.org/1999/xlink" width="377px" height="349px" viewBox="0 0 377 349"> <!-- Generator: Sketch 51.2 (57519) - http://www.bohemiancoding.com/sketch --> <title>opium2 copy 3</title> <desc>Created with Sketch.</desc> <defs></defs> <g id="Page-1" stroke="none" stroke-width="1" fill="none" fill-rule="evenodd"> <g id="opium2-copy-3"> <rect id="Rectangle" fill="#FFFFFF" x="0" y="0" width="377" height="349"></rect> <g id="Group-2" transform="translate(38.000000, 83.000000)" fill="#301D1F"> <rect id="Rectangle-3" x="161" y="113" width="131" height="6"></rect> <rect id="Rectangle-2" x="7" y="113" width="133" height="6"></rect> <circle id="Oval" cx="150" cy="116" r="3"></circle> <path d="M4.228,155.116 L4.228,159.736 C4.228,161.848011 4.24266652,163.57866 4.272,164.928 C4.30133348,166.27734 4.37466608,167.58266 4.492,168.844 C5.69467268,169.108001 6.75066212,169.24 7.66,169.24 C10.4173471,169.24 12.5806588,168.594673 14.15,167.304 C15.7193412,166.013327 16.504,164.224011 16.504,161.936 C16.504,159.501321 15.770674,157.726672 14.304,156.612 C12.837326,155.497328 10.5640154,154.94 7.484,154.94 L4.228,155.116 Z M8.232,139.1 C11.898685,139.1 14.6486575,139.664661 16.482,140.794 C18.3153425,141.923339 19.232,143.749321 19.232,146.272 C19.232,148.29601 18.6380059,149.953327 17.45,151.244 C16.2619941,152.534673 14.4506788,153.414664 12.016,153.884 C17.824029,154.500003 20.728,157.066644 20.728,161.584 C20.728,164.693349 19.6720106,167.069325 17.56,168.712 C15.4479894,170.354675 12.3093542,171.176 8.144,171.176 C7.43999648,171.176 6.44267312,171.146667 5.152,171.088 C3.86132688,171.029333 3.02533524,171 2.644,171 C2.23333128,171 1.8446685,171.007333 1.478,171.022 C1.1113315,171.036667 0.72266872,171.088 0.312,171.176 C0.40000044,170.149328 0.47333304,167.942017 0.532,164.554 C0.59066696,161.165983 0.62,157.961348 0.62,154.94 C0.62,152.563988 0.61266674,149.828682 0.598,146.734 C0.58333326,143.639318 0.48800088,141.094677 0.312,139.1 L2.6,139.276 C2.86400132,139.276 3.62666036,139.246667 4.888,139.188 C6.14933964,139.129333 7.26399516,139.1 8.232,139.1 Z M4.228,153.092 L4.36,153.136 C4.74133524,153.194667 5.17399758,153.238667 5.658,153.268 C6.14200242,153.297333 6.58933128,153.312 7,153.312 C9.7866806,153.312 11.8179936,152.747339 13.094,151.618 C14.3700064,150.488661 15.008,148.794678 15.008,146.536 C15.008,144.570657 14.4653388,143.118671 13.38,142.18 C12.2066608,141.153328 10.3880123,140.64 7.924,140.64 C7.01466212,140.64 6.38400176,140.654667 6.032,140.684 C5.35732996,140.801334 4.8733348,140.874667 4.58,140.904 C4.49199956,141.344002 4.4113337,142.326659 4.338,143.852 C4.2646663,145.377341 4.228,146.389331 4.228,146.888 L4.228,153.092 Z M32.212,154.016 C33.6493405,154.016 38.5186252,149.04405 46.82,139.1 C47.4066696,139.217334 48.095996,139.276 48.888,139.276 C49.8266714,139.276 50.5306643,139.217334 51,139.1 C49.9733282,139.892004 48.5066762,141.226657 46.6,143.104 L43.124,146.58 L36.304,153.356 C37.4773392,154.852007 38.9439912,156.626656 40.704,158.68 C41.1440022,159.208003 42.8453185,161.15865 45.808,164.532 C47.6853427,166.702678 49.5626573,168.858656 51.44,171 C50.6186626,170.882666 49.7093383,170.824 48.712,170.824 L47.568,170.824 C47.2746652,170.824 46.7760035,170.882666 46.072,171 C44.1946573,168.38932 42.3760088,165.984011 40.616,163.784 L35.248,157.184 C34.0159938,155.658659 32.9306714,154.896 31.992,154.896 L31.992,160.44 C31.992,161.672006 32.0433328,163.519988 32.146,165.984 C32.2486672,168.448012 32.3,170.119996 32.3,171 C31.6546634,170.882666 30.936004,170.824 30.144,170.824 C29.351996,170.824 28.6333366,170.882666 27.988,171 C28.0760004,169.973328 28.149333,167.788017 28.208,164.444 C28.266667,161.099983 28.296,157.932015 28.296,154.94 C28.296,152.563988 28.2886667,149.828682 28.274,146.734 C28.2593333,143.639318 28.1640009,141.094677 27.988,139.1 C28.6333366,139.217334 29.351996,139.276 30.144,139.276 C30.936004,139.276 31.6546634,139.217334 32.3,139.1 C32.2119996,140.097338 32.138667,141.233994 32.08,142.51 C32.021333,143.786006 31.992,145.186659 31.992,146.712 L31.992,153.84 C31.992,153.898667 32.0653326,153.957333 32.212,154.016 Z M78.5,139.1 C79.0280026,139.217334 79.5706639,139.276 80.128,139.276 L81.756,139.1 C81.2573308,139.950671 79.7760123,142.73731 77.312,147.46 C74.4666524,152.974694 72.1346758,157.521315 70.316,161.1 C67.8813212,165.940024 66.268004,169.239991 65.476,171 L63.804,170.824 L61.956,171 C63.1000057,169.181324 64.1266621,167.494674 65.036,165.94 C65.3586683,165.382664 65.7253313,164.72267 66.136,163.96 C65.8133317,163.255996 64.6986762,161.026685 62.792,157.272 C60.2399872,152.285308 58.3333396,148.618678 57.072,146.272 C54.9599894,142.341314 53.56667,139.950671 52.892,139.1 L55.664,139.276 L58.26,139.1 C59.9613418,142.854685 61.0466643,145.230662 61.516,146.228 C62.2200035,147.694674 63.1806606,149.652654 64.398,152.102 C65.6153394,154.551346 66.8399938,157.007988 68.072,159.472 L68.424,159.604 C68.8346687,158.870663 69.6999934,157.213346 71.02,154.632 C72.8973427,150.935982 74.2906621,148.164009 75.2,146.316 C76.6960075,143.206651 77.7959965,140.801342 78.5,139.1 Z M111.544,169.02 C109.167988,170.750675 105.677356,171.616 101.072,171.616 C95.9093075,171.616 91.9053476,170.178681 89.06,167.304 C86.2146524,164.429319 84.792,160.366693 84.792,155.116 C84.792,150.099975 86.3466511,146.081348 89.456,143.06 C92.5653489,140.038652 96.7893066,138.528 102.128,138.528 C105.765352,138.528 109.109318,139.290659 112.16,140.816 C111.661331,142.370674 111.412,143.851993 111.412,145.26 C109.241322,141.945317 106.088021,140.288 101.952,140.288 C98.0799806,140.288 95.0586775,141.578654 92.888,144.16 C90.7173225,146.741346 89.632,150.407976 89.632,155.16 C89.632,159.736023 90.7099892,163.32932 92.866,165.94 C95.0220108,168.55068 97.9479815,169.856 101.644,169.856 C105.193351,169.856 108.581317,168.55068 111.808,165.94 L111.544,169.02 Z M134.028,141.476 C134.028,142.209337 134.013333,143.089328 133.984,144.116 C133.954667,145.142672 133.925333,146.110662 133.896,147.02 L133.896,165.808 C133.896,167.304007 133.918,168.447996 133.962,169.24 C134.006,170.032004 134.086666,170.618665 134.204,171 C133.558663,170.882666 132.840004,170.824 132.048,170.824 C131.255996,170.824 130.537337,170.882666 129.892,171 C129.98,169.973328 130.053333,167.788017 130.112,164.444 C130.170667,161.099983 130.2,157.932015 130.2,154.94 C130.2,152.563988 130.192667,149.828682 130.178,146.734 C130.163333,143.639318 130.068001,141.094677 129.892,139.1 C130.596004,139.1 131.666659,139.136666 133.104,139.21 C134.541341,139.283334 135.523997,139.32 136.052,139.32 C137.166672,139.32 139.05132,139.283334 141.706,139.21 C144.36068,139.136666 145.922664,139.1 146.392,139.1 L146.304,140.684 L146.392,142.18 C144.074655,141.710664 140.320026,141.476 135.128,141.476 L134.028,141.476 Z M156.6,156.568 L156.6,163.124 C156.6,163.270667 156.673333,164.737319 156.82,167.524 C156.878667,168.638672 156.908,169.797327 156.908,171 C156.262663,170.882666 155.544004,170.824 154.752,170.824 C153.959996,170.824 153.241337,170.882666 152.596,171 C152.684,169.973328 152.757333,167.788017 152.816,164.444 C152.874667,161.099983 152.904,157.932015 152.904,154.94 C152.904,152.563988 152.896667,149.828682 152.882,146.734 C152.867333,143.639318 152.772001,141.094677 152.596,139.1 L154.884,139.276 C155.676004,139.276 157.069323,139.246667 159.064,139.188 C161.058677,139.129333 162.246665,139.1 162.628,139.1 C166.00135,139.1 168.597324,139.803993 170.416,141.212 C172.234676,142.620007 173.144,144.614654 173.144,147.196 C173.144,150.188015 172.029344,152.512658 169.8,154.17 C167.570656,155.827342 164.373354,156.656 160.208,156.656 L156.6,156.568 Z M156.6,154.808 L158.712,154.896 C165.400033,154.896 168.744,152.461358 168.744,147.592 C168.744,145.157321 168.025341,143.426672 166.588,142.4 C165.150659,141.373328 162.862682,140.86 159.724,140.86 L156.82,140.992 C156.82,142.282673 156.783334,144.071989 156.71,146.36 C156.636666,148.648011 156.6,150.055997 156.6,150.584 L156.6,154.808 Z M200.952,139.1 C201.480003,139.217334 202.022664,139.276 202.58,139.276 L204.208,139.1 C203.709331,139.950671 202.228012,142.73731 199.764,147.46 C196.918652,152.974694 194.586676,157.521315 192.768,161.1 C190.333321,165.940024 188.720004,169.239991 187.928,171 L186.256,170.824 L184.408,171 C185.552006,169.181324 186.578662,167.494674 187.488,165.94 C187.810668,165.382664 188.177331,164.72267 188.588,163.96 C188.265332,163.255996 187.150676,161.026685 185.244,157.272 C182.691987,152.285308 180.78534,148.618678 179.524,146.272 C177.411989,142.341314 176.01867,139.950671 175.344,139.1 L178.116,139.276 L180.712,139.1 C182.413342,142.854685 183.498664,145.230662 183.968,146.228 C184.672004,147.694674 185.632661,149.652654 186.85,152.102 C188.067339,154.551346 189.291994,157.007988 190.524,159.472 L190.876,159.604 C191.286669,158.870663 192.151993,157.213346 193.472,154.632 C195.349343,150.935982 196.742662,148.164009 197.652,146.316 C199.148007,143.206651 200.247996,140.801342 200.952,139.1 Z M217.672,155.072 L213.492,155.204 C213.609334,154.969332 213.668,154.632002 213.668,154.192 C213.668,153.781331 213.609334,153.458668 213.492,153.224 L217.144,153.312 C219.461345,153.312 221.213994,152.688673 222.402,151.442 C223.590006,150.195327 224.184,148.589343 224.184,146.624 C224.184,144.834658 223.773337,143.397339 222.952,142.312 C221.925328,140.96266 220.326678,140.288 218.156,140.288 C216.278657,140.288 214.680007,140.617997 213.36,141.278 C212.039993,141.938003 211.04267,142.869327 210.368,144.072 L208.872,141.432 C209.928005,140.493329 211.291992,139.774669 212.964,139.276 C214.636008,138.777331 216.454657,138.528 218.42,138.528 C221.558682,138.528 224.073991,139.217326 225.966,140.596 C227.858009,141.974674 228.804,143.954654 228.804,146.536 C228.804,150.349352 226.325358,152.842661 221.368,154.016 C224.008013,154.016 226.200658,154.756659 227.946,156.238 C229.691342,157.719341 230.564,159.647988 230.564,162.024 C230.564,165.221349 229.471344,167.619325 227.286,169.218 C225.100656,170.816675 221.954687,171.616 217.848,171.616 C215.941324,171.616 214.049343,171.396002 212.172,170.956 C210.294657,170.515998 208.710673,169.841338 207.42,168.932 C207.596001,168.521331 207.749999,168.008003 207.882,167.392 C208.014001,166.775997 208.109333,166.189336 208.168,165.632 C208.989337,166.746672 210.316657,167.729329 212.15,168.58 C213.983342,169.430671 215.765325,169.856 217.496,169.856 C220.136013,169.856 222.167326,169.174007 223.59,167.81 C225.012674,166.445993 225.724,164.532012 225.724,162.068 C225.724,159.955989 225.005341,158.262006 223.568,156.986 C222.130659,155.709994 220.165346,155.072 217.672,155.072 Z M261.188,144.908 L239.408,171 C239.231999,170.882666 239.026668,170.824 238.792,170.824 L238.132,171 C238.22,169.973328 238.293333,167.788017 238.352,164.444 C238.410667,161.099983 238.44,157.932015 238.44,154.94 C238.44,152.563988 238.432667,149.828682 238.418,146.734 C238.403333,143.639318 238.308001,141.094677 238.132,139.1 C238.777337,139.217334 239.495996,139.276 240.288,139.276 C241.080004,139.276 241.798663,139.217334 242.444,139.1 C242.444,139.422668 242.392667,140.713322 242.29,142.972 C242.187333,145.230678 242.136,147.005327 242.136,148.296 C242.136,151.053347 242.158,153.509989 242.202,155.666 C242.246,157.822011 242.312,160.307986 242.4,163.124 L262.728,139.144 L263.96,139.276 C264.517336,139.276 264.986665,139.217334 265.368,139.1 C265.28,140.126672 265.206667,142.275317 265.148,145.546 C265.089333,148.816683 265.06,151.947985 265.06,154.94 C265.06,157.345345 265.067333,160.124651 265.082,163.278 C265.096667,166.431349 265.191999,169.005323 265.368,171 C264.722663,170.882666 264.004004,170.824 263.212,170.824 C262.419996,170.824 261.701337,170.882666 261.056,171 C261.144,168.125319 261.217333,165.65401 261.276,163.586 C261.334667,161.51799 261.364,159.354678 261.364,157.096 C261.364,155.335991 261.342,153.42201 261.298,151.354 C261.254,149.28599 261.217333,147.137344 261.188,144.908 Z M297.532,144.908 L275.752,171 C275.575999,170.882666 275.370668,170.824 275.136,170.824 L274.476,171 C274.564,169.973328 274.637333,167.788017 274.696,164.444 C274.754667,161.099983 274.784,157.932015 274.784,154.94 C274.784,152.563988 274.776667,149.828682 274.762,146.734 C274.747333,143.639318 274.652001,141.094677 274.476,139.1 C275.121337,139.217334 275.839996,139.276 276.632,139.276 C277.424004,139.276 278.142663,139.217334 278.788,139.1 C278.788,139.422668 278.736667,140.713322 278.634,142.972 C278.531333,145.230678 278.48,147.005327 278.48,148.296 C278.48,151.053347 278.502,153.509989 278.546,155.666 C278.59,157.822011 278.656,160.307986 278.744,163.124 L299.072,139.144 L300.304,139.276 C300.861336,139.276 301.330665,139.217334 301.712,139.1 C301.624,140.126672 301.550667,142.275317 301.492,145.546 C301.433333,148.816683 301.404,151.947985 301.404,154.94 C301.404,157.345345 301.411333,160.124651 301.426,163.278 C301.440667,166.431349 301.535999,169.005323 301.712,171 C301.066663,170.882666 300.348004,170.824 299.556,170.824 C298.763996,170.824 298.045337,170.882666 297.4,171 C297.488,168.125319 297.561333,165.65401 297.62,163.586 C297.678667,161.51799 297.708,159.354678 297.708,157.096 C297.708,155.335991 297.686,153.42201 297.642,151.354 C297.598,149.28599 297.561333,147.137344 297.532,144.908 Z" id="ВКУС-ГРУЗИИ"></path> <path d="M25.2851562,51.1083984 L25.2851562,56.2646484 C25.2851562,57.3030651 25.3567701,59.4067224 25.5,62.5756836 C25.6432299,65.7446448 25.8580715,68.6360546 26.1445312,71.25 C26.6816433,75.0813994 27.3082646,78.8590309 28.0244141,82.5830078 L28.6689453,84.8925781 L24.7480469,84.8925781 C24.4973946,84.8925781 23.9065802,84.8478195 22.9755859,84.7583008 C22.0445917,84.6687821 20.7823973,84.5613613 19.1889648,84.4360352 C17.5955324,84.310709 16.1005929,84.2480469 14.7041016,84.2480469 C13.7014924,84.2480469 12.3945393,84.3554677 10.7832031,84.5703125 C9.17186694,84.7851573 8.31250054,84.8925781 8.20507812,84.8925781 L3.96191406,85.1074219 L4.60644531,82.5830078 C5.1077499,80.8642492 5.50162617,79.0022887 5.78808594,76.9970703 C6.0745457,74.991852 6.2893873,73.0224706 6.43261719,71.0888672 C6.57584707,69.1552638 6.68326787,67.1232203 6.75488281,64.9926758 C6.82649775,62.8621313 6.91601509,60.6152462 7.0234375,58.2519531 C7.16666738,55.8170451 7.23828125,54.0983123 7.23828125,53.0957031 C7.23828125,51.8066342 7.22932952,50.8487987 7.21142578,50.222168 C7.19352205,49.5955372 7.16666685,48.798833 7.13085938,47.8320312 C7.0950519,46.8652295 7.05924497,45.7731181 7.0234375,44.5556641 C6.98763003,43.3382101 6.9518231,42.1565812 6.91601562,41.0107422 L6.91601562,31.0742188 C6.91601562,28.2096211 6.86230522,25.6852323 6.75488281,23.5009766 C6.6474604,21.3167208 6.47737747,19.1324979 6.24462891,16.9482422 C6.01188035,14.7639865 5.60905234,12.7050878 5.03613281,10.7714844 C4.53482822,8.98111084 3.44271675,6.47462549 1.75976562,3.25195312 L0.416992188,0.834960938 L3.37109375,1.15722656 C6.59376611,1.40787886 9.3240448,1.56901006 11.5620117,1.640625 C13.7999786,1.71223994 16.7988093,1.74804687 20.5585938,1.74804687 L26.0371094,1.74804687 C29.7252789,1.74804687 34.12058,1.52425354 39.2231445,1.07666016 C44.3257091,0.629066772 46.8232427,0.405273438 46.7158203,0.405273438 L52.8925781,0.405273438 C55.2558712,0.405273438 58.1293776,0.915522241 61.5131836,1.93603516 C64.8969896,2.95654807 67.6272683,4.54100488 69.7041016,6.68945312 C71.3512452,8.51563413 72.6492466,10.8251813 73.5981445,13.6181641 C74.5470425,16.4111468 75.0214844,18.5416593 75.0214844,20.0097656 L75.0214844,24.6289062 C75.0214844,29.3196849 73.8488073,33.5180479 71.503418,37.2241211 C69.1580286,40.9301943 65.7832251,44.3945151 61.3789062,47.6171875 C58.5143086,49.7656357 55.0499878,51.3053339 50.9858398,52.2363281 C46.9216919,53.1673224 42.9023636,53.6328125 38.9277344,53.6328125 C36.1705591,53.6328125 33.8610119,53.4179709 31.9990234,52.9882812 L25.2851562,51.1083984 Z M26.9501953,45.9521484 L30.9785156,45.9521484 C32.5898518,45.9521484 34.935206,45.4329479 38.0146484,44.3945312 C41.0940909,43.3561146 43.7079971,41.9596442 45.8564453,40.2050781 C48.5778131,37.9134 50.7262291,35.1025557 52.3017578,31.7724609 C53.8772865,28.4423662 54.6650391,25.2555491 54.6650391,22.2119141 L54.6650391,21.1914062 C54.6650391,20.6542942 54.3875353,19.4100032 53.8325195,17.4584961 C53.2775037,15.5069889 52.5882203,14.0478564 51.7646484,13.0810547 C49.293933,10.1448421 46.304054,8.67675781 42.7949219,8.67675781 L40.109375,8.67675781 C35.9199009,8.67675781 32.2317868,11.1295328 29.0449219,16.0351562 C27.5768156,18.3626418 26.5652697,21.3614725 26.0102539,25.0317383 C25.4552381,28.702004 25.1777344,31.3069584 25.1777344,32.8466797 L25.1777344,44.3945312 L26.9501953,45.9521484 Z M107.892578,2.9296875 C107.892578,2.75065015 107.48975,4.31720349 106.684082,7.62939453 C105.878414,10.9415856 105.439779,13.5644435 105.368164,15.4980469 C105.332357,17.3242279 105.242839,19.8307132 105.099609,23.0175781 C104.956379,26.204443 104.822103,28.8989148 104.696777,31.1010742 L104.508789,34.4042969 L104.508789,52.9882813 C104.508789,54.6354249 104.714679,57.016586 105.126465,60.1318359 C105.538251,63.2470859 106.317052,65.9326059 107.462891,68.1884766 C109.718761,72.4137581 113.17413,74.5263672 117.829102,74.5263672 L123.307617,74.5263672 C129.538117,74.5263672 135.374647,70.2832456 140.817383,61.796875 C142.285489,59.5768118 143.422359,56.8107262 144.228027,53.4985352 C145.033695,50.1863441 145.579751,46.8831545 145.866211,43.5888672 C146.152671,40.2945799 146.295898,37.1614732 146.295898,34.1894531 C146.295898,32.9719991 146.286947,32.1931983 146.269043,31.8530273 C146.251139,31.5128564 146.224284,31.1816422 146.188477,30.859375 L146.188477,26.8310547 C146.188477,23.0712703 146.143718,20.1530052 146.054199,18.0761719 C145.964681,15.9993386 145.722984,13.5644671 145.329102,10.7714844 C145.185872,9.62564531 144.97103,8.45296824 144.68457,7.25341797 C144.398111,6.0538677 144.201172,5.02441836 144.09375,4.16503906 L143.878906,1.26464844 L147.638672,1.53320312 C151.434264,1.67643301 153.922846,1.74804688 155.104492,1.74804688 C156.214524,1.74804688 157.628898,1.71223994 159.347656,1.640625 C161.066415,1.56901006 162.480789,1.53320312 163.59082,1.53320312 L166.974609,1.53320312 L166.759766,3.46679688 C166.294269,6.65366177 165.891441,9.34813352 165.55127,11.550293 C165.211099,13.7524524 164.951498,15.7665924 164.772461,17.5927734 C164.127926,25.470417 163.805664,32.2379274 163.805664,37.8955078 L163.805664,62.5488281 C163.805664,67.7767188 164.020506,71.8945162 164.450195,74.9023438 C164.9515,77.3372518 166.007804,79.9332544 167.619141,82.6904297 L169.176758,85 L163.913086,84.7851562 C163.375974,84.7851562 162.230152,84.6956389 160.475586,84.5166016 C158.72102,84.3375642 157.145515,84.2480469 155.749023,84.2480469 C154.316725,84.2480469 152.562185,84.3733711 150.485352,84.6240234 C148.408518,84.8746757 147.459635,85 147.638672,85 L145.006836,85.2148438 L145.329102,79.3066406 C145.329102,77.9101493 145.096356,77.1761071 144.630859,77.1044922 C144.380207,77.1044922 143.87891,77.2566717 143.126953,77.5610352 C142.374996,77.8653987 141.855796,78.0354816 141.569336,78.0712891 C141.426106,78.1787115 137.675296,79.6736644 136.977051,79.8706055 C136.637516,79.9663717 131.319451,82.2390353 125.852311,83.5399025 C120.076406,84.914238 114.134112,85.3200526 113.720215,85.402832 C112.914547,85.5639656 111.903001,85.6803382 110.685547,85.7519531 L102.84375,85.859375 C100.945954,85.859375 98.8064898,85.4386435 96.425293,84.597168 C94.0440962,83.7556924 92.0836666,82.5651119 90.5439453,81.0253906 C89.2906838,79.6288993 88.243331,77.9370217 87.4018555,75.949707 C86.5603799,73.9623924 86.1396484,72.5032599 86.1396484,71.5722656 L86.1396484,15.1757812 C86.1396484,13.1705629 85.6562548,10.8968226 84.6894531,8.35449219 C84.4746083,7.74576519 84.116539,7.01172305 83.6152344,6.15234375 C83.1139298,5.29296445 82.737957,4.59472925 82.4873047,4.05761719 L81.3056641,1.04980469 L85.0117188,1.53320312 C89.0937704,1.96289277 92.3701048,2.17773438 94.8408203,2.17773438 C95.4853548,2.17773438 97.3115084,2.08821704 100.319336,1.90917969 C103.327163,1.73014233 104.723634,1.640625 104.508789,1.640625 L108.483398,1.53320312 L107.892578,2.9296875 Z M198.180664,48.7988281 L197.96582,53.7402344 C197.96582,54.8144585 198.046386,57.1777161 198.20752,60.8300781 C198.368653,64.4824401 198.66406,67.9199058 199.09375,71.1425781 C199.416017,73.8281384 199.702473,75.922844 199.953125,77.4267578 C200.203777,78.9306716 200.651364,80.6494044 201.295898,82.5830078 L202.047852,84.7851562 L198.449219,84.5703125 C198.520834,84.5703125 197.231784,84.4628917 194.582031,84.2480469 C191.932278,84.0332021 189.801766,83.9257812 188.19043,83.9257812 C187.581703,83.9257812 186.901371,83.9705399 186.149414,84.0600586 C185.397457,84.1495773 184.761884,84.2301429 184.242676,84.3017578 C183.723467,84.3733728 183.22217,84.4360349 182.73877,84.4897461 C182.255369,84.5434573 181.977865,84.5703125 181.90625,84.5703125 L177.394531,85.1074219 L177.87793,82.7978516 C179.131191,76.1734695 179.811523,68.2601372 179.918945,59.0576172 C179.918945,56.2646345 179.909994,54.0893633 179.89209,52.5317383 L179.838379,47.8588867 C179.820475,46.3012617 179.811523,44.0901836 179.811523,41.2255859 L179.811523,31.4501953 C179.847331,30.8414683 179.874186,30.214847 179.89209,29.5703125 C179.909994,28.925778 179.918945,27.6009215 179.918945,25.5957031 C179.918945,19.2577808 179.453455,14.3880378 178.522461,10.9863281 C177.842119,8.73045747 176.767911,6.22397212 175.299805,3.46679688 L173.90332,0.834960938 L176.964844,1.26464844 C179.256522,1.44368579 181.601876,1.56901006 184.000977,1.640625 C186.400077,1.71223994 188.5843,1.77490208 190.553711,1.82861328 C192.523122,1.88232449 194.707345,1.92708315 197.106445,1.96289062 L199.523438,1.96289062 C201.958346,1.96289062 205.198873,1.73909729 209.245117,1.29150391 C213.291361,0.843910522 216.979476,0.620117188 220.30957,0.620117188 L226.59375,0.620117188 C229.959652,0.620117188 232.770497,1.03189692 235.026367,1.85546875 C237.282238,2.67904058 239.341137,4.14712485 241.203125,6.25976562 C244.139338,9.62566787 245.607422,13.2779751 245.607422,17.2167969 L245.607422,20.7617188 C245.607422,23.3756641 245.240401,25.7120665 244.506348,27.7709961 C243.772295,29.8299257 242.599617,31.9693899 240.988281,34.1894531 C240.02148,35.5143295 238.893561,36.7496688 237.604492,37.8955078 C236.315423,39.0413469 235.097988,39.9365202 233.952148,40.5810547 L230.568359,42.0849609 C229.028638,42.9085328 228.258789,43.6783818 228.258789,44.3945312 C228.258789,44.8600284 228.446775,45.2539046 228.822754,45.5761719 C229.198732,45.8984391 229.54785,46.202798 229.870117,46.4892578 C232.054373,48.1722089 233.48665,49.4254516 234.166992,50.2490234 C235.169601,51.43067 236.118485,52.7107678 237.013672,54.0893555 C237.908859,55.4679431 238.669756,56.6943306 239.296387,57.7685547 C239.923017,58.8427788 240.603349,60.0244076 241.337402,61.3134766 C242.071455,62.6025455 242.51009,63.390298 242.65332,63.6767578 L244.748047,67.3828125 C244.962892,67.6692723 245.598465,68.4749283 246.654785,69.7998047 C247.711106,71.1246811 248.91959,72.4763928 250.280273,73.8549805 C251.640957,75.2335681 252.912103,76.3167278 254.09375,77.1044922 C254.988937,77.6774117 256.206373,78.2861296 257.746094,78.9306641 C259.285815,79.5751985 260.270506,80.0227852 260.700195,80.2734375 L262.794922,81.3476562 L261.881836,82.1533203 C261.666991,82.2965502 260.789721,82.5651022 259.25,82.9589844 C257.710279,83.3528666 256.134774,83.675129 254.523438,83.9257812 C252.339182,84.212241 249.474627,84.3554688 245.929688,84.3554688 L242.223633,84.3554688 C237.246394,84.3554688 233.432956,82.7799637 230.783203,79.6289062 C229.816401,78.4472597 228.98389,77.328293 228.285645,76.2719727 C227.587399,75.2156523 226.728032,73.7654715 225.70752,71.9213867 C224.687007,70.077302 223.809737,68.4838934 223.075684,67.1411133 C222.34163,65.7983331 221.706057,64.7509803 221.168945,63.9990234 L219.450195,61.3671875 C217.301747,57.4283657 215.314462,54.7070388 213.488281,53.203125 C210.086572,50.4101423 207.078789,49.0136719 204.464844,49.0136719 L198.180664,48.7988281 Z M197.858398,42.2998047 L201.081055,42.2998047 C202.477546,42.2998047 204.912418,42.022301 208.385742,41.4672852 C211.859067,40.9122694 214.669911,39.88282 216.818359,38.3789062 C219.21746,36.5885327 221.204745,34.3505994 222.780273,31.6650391 C224.355802,28.9794788 225.143555,26.6341246 225.143555,24.6289062 L225.143555,21.40625 C225.143555,18.1835776 224.373706,15.6591888 222.833984,13.8330078 C221.974605,12.7229762 220.792976,11.8188511 219.289062,11.1206055 C217.785149,10.4223598 216.326016,9.91211099 214.911621,9.58984375 C213.497226,9.26757651 212.664715,9.10644531 212.414062,9.10644531 L209.889648,9.10644531 C208.708002,9.10644531 207.35629,9.46451465 205.834473,10.1806641 C204.312655,10.8968135 202.94304,12.1858631 201.725586,14.0478516 C200.150057,16.4469521 199.111656,18.5058508 198.610352,20.2246094 C198.109047,21.943368 197.858398,23.2145141 197.858398,24.0380859 L197.858398,42.2998047 Z M294.860352,2.60742188 C294.03678,6.76108848 293.499676,9.9837125 293.249023,12.2753906 C292.783526,15.7487153 292.550781,19.5979606 292.550781,23.8232422 L292.550781,52.4511719 C292.550781,52.3437495 292.631347,53.9908684 292.79248,57.3925781 C292.953614,60.7942878 293.177407,64.0527188 293.463867,67.1679688 C293.57129,69.0299572 293.795083,71.3932148 294.135254,74.2578125 C294.475425,77.1224102 294.752929,79.4140539 294.967773,81.1328125 L295.773438,84.6777344 L292.658203,84.6777344 C291.655594,84.6777344 290.473965,84.6508792 289.113281,84.597168 C287.752597,84.5434568 286.382982,84.4897464 285.004395,84.4360352 C283.625807,84.382324 282.435226,84.3554688 281.432617,84.3554688 C280.358393,84.3554688 279.588544,84.3733722 279.123047,84.4091797 C278.65755,84.4449872 278.093591,84.4807941 277.431152,84.5166016 C276.768714,84.552409 275.864589,84.6061194 274.71875,84.6777344 L270.797852,85.1074219 L271.334961,81.7236328 C271.728843,79.5035696 272.248044,74.8307648 272.892578,67.7050781 C273.071615,65.2701701 273.268554,62.9069125 273.483398,60.6152344 C273.698243,58.3235562 273.868326,56.0766712 273.993652,53.8745117 C274.118978,51.6723523 274.181641,49.1032048 274.181641,46.1669922 L274.181641,33.0615234 C274.181641,28.2275149 273.930992,22.9817991 273.429688,17.3242188 C273.10742,13.4212044 272.838868,10.6282636 272.624023,8.9453125 C272.409179,7.26236138 271.979495,5.32878696 271.334961,3.14453125 L270.797852,0.834960938 L273.429688,1.15722656 C276.3659,1.55110874 279.481103,1.74804688 282.775391,1.74804688 C286.678405,1.74804688 289.829415,1.55110874 292.228516,1.15722656 L295.182617,0.620117188 L294.860352,2.60742188 Z" id="PURI"></path> </g> </g> </g> </svg> 