<?xml version="1.0" encoding="UTF-8"?> <svg xmlns="http://www.w3.org/2000/svg" xmlns:xlink="http://www.w3.org/1999/xlink" width="377px" height="349px" viewBox="0 0 377 349"> <!-- Generator: Sketch 51.2 (57519) - http://www.bohemiancoding.com/sketch --> <title>opium2 copy 5</title> <desc>Created with Sketch.</desc> <defs></defs> <g id="Page-1" stroke="none" stroke-width="1" fill="none" fill-rule="evenodd"> <g id="opium2-copy-5"> <rect id="Rectangle" fill="#FFFFFF" x="0" y="0" width="377" height="349"></rect> <g id="Group-2" transform="translate(68.000000, 107.000000)" fill="#301D1F"> <rect id="Rectangle-3" x="128" y="90" width="105" height="5"></rect> <rect id="Rectangle-2" x="6" y="90" width="106" height="5"></rect> <circle id="Oval" cx="119.5" cy="92.5" r="2.5"></circle> <path d="M3.13124088,123.034574 L3.13124088,126.664894 C3.13124088,128.324476 3.14296825,129.684392 3.16642336,130.744681 C3.18987846,131.80497 3.24851535,132.830669 3.34233577,133.821809 C4.30399508,134.029256 5.14836619,134.132979 5.87547445,134.132979 C8.08025433,134.132979 9.81004239,133.625892 11.0648905,132.611702 C12.3197386,131.597513 12.9471533,130.191498 12.9471533,128.393617 C12.9471533,126.480487 12.3607845,125.085997 11.1880292,124.210106 C10.0152739,123.334215 8.19753056,122.896277 5.73474453,122.896277 L3.13124088,123.034574 Z M6.33284672,110.449468 C9.26473485,110.449468 11.463618,110.893169 12.929562,111.780585 C14.3955061,112.668001 15.1284672,114.102827 15.1284672,116.085106 C15.1284672,117.67554 14.6535084,118.977832 13.7035766,119.992021 C12.7536449,121.006211 11.3053139,121.697693 9.35854015,122.066489 C14.002651,122.550534 16.3246715,124.567358 16.3246715,128.117021 C16.3246715,130.560296 15.4803004,132.427299 13.7915328,133.718085 C12.1027653,135.008872 9.59310668,135.654255 6.26248175,135.654255 C5.69955923,135.654255 4.90209762,135.631206 3.87007299,135.585106 C2.83804837,135.539007 2.1695879,135.515957 1.86467153,135.515957 C1.53630006,135.515957 1.22552458,135.52172 0.932335766,135.533245 C0.639146953,135.54477 0.328371472,135.585106 0,135.654255 C0.0703653153,134.847514 0.129002199,133.113045 0.175912409,130.450798 C0.222822619,127.788551 0.246277372,125.270402 0.246277372,122.896277 C0.246277372,121.029246 0.240413684,118.879888 0.228686131,116.448138 C0.216958579,114.016389 0.140730631,112.016852 0,110.449468 L1.82948905,110.587766 C2.040585,110.587766 2.65040858,110.564717 3.6589781,110.518617 C4.66754762,110.472518 5.55882825,110.449468 6.33284672,110.449468 Z M3.13124088,121.444149 L3.23678832,121.478723 C3.54170469,121.524823 3.8876623,121.559397 4.27467153,121.582447 C4.66168077,121.605497 5.01936575,121.617021 5.34773723,121.617021 C7.57597221,121.617021 9.20021388,121.17332 10.2205109,120.285904 C11.240808,119.398488 11.7509489,118.067385 11.7509489,116.292553 C11.7509489,114.748219 11.317036,113.607273 10.4491971,112.869681 C9.51099288,112.062939 8.05679817,111.659574 6.08656934,111.659574 C5.35946108,111.659574 4.85518389,111.671099 4.57372263,111.694149 C4.03425521,111.786348 3.64725178,111.843972 3.41270073,111.867021 C3.34233541,112.212768 3.27783484,112.984923 3.21919708,114.183511 C3.16055932,115.382098 3.13124088,116.177303 3.13124088,116.569149 L3.13124088,121.444149 Z M25.5072993,122.170213 C26.6565994,122.170213 30.5500885,118.263337 37.1878832,110.449468 C37.6569853,110.541667 38.208172,110.587766 38.8414599,110.587766 C39.5920232,110.587766 40.1549373,110.541667 40.530219,110.449468 C39.7092903,111.071812 38.5365526,112.12056 37.0119708,113.595745 L34.2325547,116.327128 L28.7792701,121.651596 C29.7174743,122.827134 30.8902119,124.221623 32.2975182,125.835106 C32.6493448,126.250002 34.0097205,127.782788 36.3786861,130.433511 C37.8798129,132.139193 39.3809171,133.833325 40.8820438,135.515957 C40.2253009,135.423758 39.4982035,135.37766 38.7007299,135.37766 L37.7859854,135.37766 C37.5514344,135.37766 37.1527035,135.423758 36.589781,135.515957 C35.0886543,133.464529 33.6344596,131.574477 32.2271533,129.845745 L27.9348905,124.659574 C26.9497761,123.460987 26.0819502,122.861702 25.3313869,122.861702 L25.3313869,127.218085 C25.3313869,128.186175 25.3724327,129.638288 25.4545255,131.574468 C25.5366184,133.510648 25.5776642,134.824465 25.5776642,135.515957 C25.0616519,135.423758 24.4870105,135.37766 23.8537226,135.37766 C23.2204348,135.37766 22.6457933,135.423758 22.129781,135.515957 C22.2001463,134.709216 22.2587832,132.992034 22.3056934,130.364362 C22.3526036,127.736689 22.3760584,125.247352 22.3760584,122.896277 C22.3760584,121.029246 22.3701947,118.879888 22.3584672,116.448138 C22.3467396,114.016389 22.2705117,112.016852 22.129781,110.449468 C22.6457933,110.541667 23.2204348,110.587766 23.8537226,110.587766 C24.4870105,110.587766 25.0616519,110.541667 25.5776642,110.449468 C25.5072989,111.23316 25.448662,112.126325 25.4017518,113.128989 C25.3548416,114.131654 25.3313869,115.232264 25.3313869,116.430851 L25.3313869,122.031915 C25.3313869,122.078014 25.3900237,122.124113 25.5072993,122.170213 Z M62.5192701,110.449468 C62.941462,110.541667 63.3753749,110.587766 63.8210219,110.587766 L65.1227737,110.449468 C64.7240369,111.117911 63.5395719,113.307606 61.5693431,117.018617 C59.2941979,121.351972 57.429545,124.924631 55.9753285,127.736702 C54.0285547,131.539913 52.7385433,134.132972 52.1052555,135.515957 L50.7683212,135.37766 L49.2906569,135.515957 C50.205406,134.086872 51.0263224,132.761531 51.7534307,131.539894 C52.0114368,131.101948 52.3046212,130.583336 52.6329927,129.984043 C52.3749865,129.430848 51.4837059,127.679093 49.9591241,124.728723 C47.9185299,120.810264 46.393971,117.929087 45.3854015,116.085106 C43.6966339,112.996438 42.5825331,111.117911 42.0430657,110.449468 L44.259562,110.587766 L46.3353285,110.449468 C47.6957246,113.399837 48.5635504,115.26684 48.9388321,116.050532 C49.5017546,117.20302 50.2698978,118.741568 51.2432847,120.666223 C52.2166715,122.590878 53.1959075,124.521267 54.1810219,126.457447 L54.4624818,126.56117 C54.7908532,125.984926 55.4827684,124.682634 56.5382482,122.654255 C58.0393749,119.749985 59.1534757,117.571816 59.8805839,116.119681 C61.0767943,113.676406 61.9563476,111.786354 62.5192701,110.449468 Z M88.9413139,133.960106 C87.0414504,135.320042 84.2503347,136 80.5678832,136 C76.4397847,136 73.2382109,134.870579 70.9630657,132.611702 C68.6879205,130.352826 67.550365,127.160482 67.550365,123.034574 C67.550365,119.093065 68.7934669,115.935296 71.279708,113.56117 C73.7659492,111.187045 77.1434336,110 81.4122628,110 C84.3206958,110 86.9945377,110.599285 89.4338686,111.797872 C89.0351318,113.01951 88.8357664,114.183505 88.8357664,115.289894 C87.1000886,112.685271 84.5787027,111.382979 81.2715328,111.382979 C78.175459,111.382979 75.7596194,112.397153 74.0239416,114.425532 C72.2882638,116.453911 71.420438,119.335088 71.420438,123.069149 C71.420438,126.664912 72.2824001,129.488465 74.0063504,131.539894 C75.7303006,133.591322 78.0699122,134.617021 81.0252555,134.617021 C83.8633232,134.617021 86.5723472,133.591322 89.1524088,131.539894 L88.9413139,133.960106 Z M106.919562,112.316489 C106.919562,112.892733 106.907835,113.584216 106.88438,114.390957 C106.860924,115.197699 106.83747,115.95833 106.814015,116.672872 L106.814015,131.43617 C106.814015,132.611708 106.831606,133.510635 106.866788,134.132979 C106.901971,134.755322 106.966472,135.216311 107.060292,135.515957 C106.54428,135.423758 105.969638,135.37766 105.33635,135.37766 C104.703063,135.37766 104.128421,135.423758 103.612409,135.515957 C103.682774,134.709216 103.741411,132.992034 103.788321,130.364362 C103.835231,127.736689 103.858686,125.247352 103.858686,122.896277 C103.858686,121.029246 103.852822,118.879888 103.841095,116.448138 C103.829367,114.016389 103.753139,112.016852 103.612409,110.449468 C104.175331,110.449468 105.03143,110.47828 106.18073,110.535904 C107.33003,110.593529 108.115764,110.62234 108.537956,110.62234 C109.42925,110.62234 110.936218,110.593529 113.058905,110.535904 C115.181592,110.47828 116.430558,110.449468 116.805839,110.449468 L116.735474,111.694149 L116.805839,112.869681 C114.952886,112.500885 111.950678,112.316489 107.799124,112.316489 L106.919562,112.316489 Z M124.968175,124.175532 L124.968175,129.327128 C124.968175,129.442376 125.026812,130.594847 125.144088,132.784574 C125.190998,133.660465 125.214453,134.570917 125.214453,135.515957 C124.69844,135.423758 124.123799,135.37766 123.490511,135.37766 C122.857223,135.37766 122.282582,135.423758 121.766569,135.515957 C121.836935,134.709216 121.895572,132.992034 121.942482,130.364362 C121.989392,127.736689 122.012847,125.247352 122.012847,122.896277 C122.012847,121.029246 122.006983,118.879888 121.995255,116.448138 C121.983528,114.016389 121.9073,112.016852 121.766569,110.449468 L123.596058,110.587766 C124.229346,110.587766 125.343447,110.564717 126.938394,110.518617 C128.533341,110.472518 129.483259,110.449468 129.788175,110.449468 C132.485512,110.449468 134.561258,111.002654 136.015474,112.109043 C137.469691,113.215431 138.196788,114.782791 138.196788,116.81117 C138.196788,119.162246 137.305508,120.988912 135.52292,122.291223 C133.740332,123.593535 131.183764,124.244681 127.853139,124.244681 L124.968175,124.175532 Z M124.968175,122.792553 L126.656934,122.861702 C132.004698,122.861702 134.67854,120.948601 134.67854,117.12234 C134.67854,115.20921 134.103899,113.849295 132.954599,113.042553 C131.805298,112.235812 129.975828,111.832447 127.466131,111.832447 L125.144088,111.93617 C125.144088,112.95036 125.114769,114.356374 125.056131,116.154255 C124.997494,117.952137 124.968175,119.058509 124.968175,119.473404 L124.968175,122.792553 Z M160.432117,110.449468 C160.854309,110.541667 161.288222,110.587766 161.733869,110.587766 L163.03562,110.449468 C162.636884,111.117911 161.452419,113.307606 159.48219,117.018617 C157.207045,121.351972 155.342392,124.924631 153.888175,127.736702 C151.941401,131.539913 150.65139,134.132972 150.018102,135.515957 L148.681168,135.37766 L147.203504,135.515957 C148.118253,134.086872 148.939169,132.761531 149.666277,131.539894 C149.924284,131.101948 150.217468,130.583336 150.545839,129.984043 C150.287833,129.430848 149.396553,127.679093 147.871971,124.728723 C145.831377,120.810264 144.306818,117.929087 143.298248,116.085106 C141.609481,112.996438 140.49538,111.117911 139.955912,110.449468 L142.172409,110.587766 L144.248175,110.449468 C145.608571,113.399837 146.476397,115.26684 146.851679,116.050532 C147.414601,117.20302 148.182745,118.741568 149.156131,120.666223 C150.129518,122.590878 151.108754,124.521267 152.093869,126.457447 L152.375328,126.56117 C152.7037,125.984926 153.395615,124.682634 154.451095,122.654255 C155.952222,119.749985 157.066322,117.571816 157.793431,116.119681 C158.989641,113.676406 159.869194,111.786354 160.432117,110.449468 Z M173.80146,123 L170.459124,123.103723 C170.552945,122.919325 170.599854,122.654257 170.599854,122.308511 C170.599854,121.985814 170.552945,121.73227 170.459124,121.547872 L173.37927,121.617021 C175.232223,121.617021 176.633645,121.127221 177.583577,120.147606 C178.533508,119.167992 179.008467,117.906036 179.008467,116.361702 C179.008467,114.955667 178.680101,113.826245 178.023358,112.973404 C177.202429,111.913115 175.924145,111.382979 174.188467,111.382979 C172.68734,111.382979 171.409056,111.642285 170.353577,112.160904 C169.298097,112.679524 168.500635,113.411343 167.961168,114.356383 L166.764964,112.281915 C167.609347,111.544323 168.699993,110.979612 170.036934,110.587766 C171.373875,110.19592 172.82807,110 174.399562,110 C176.909258,110 178.920503,110.541661 180.433358,111.625 C181.946212,112.708339 182.702628,114.264174 182.702628,116.292553 C182.702628,119.289022 180.720701,121.248222 176.756788,122.170213 C178.867748,122.170213 180.620991,122.75221 182.016569,123.916223 C183.412148,125.080236 184.109927,126.595735 184.109927,128.462766 C184.109927,130.97519 183.236237,132.85948 181.488832,134.115691 C179.741427,135.371903 177.225904,136 173.94219,136 C172.417608,136 170.904776,135.827129 169.40365,135.481383 C167.902523,135.135637 166.635966,134.6055 165.603942,133.890957 C165.744672,133.568261 165.86781,133.164896 165.973358,132.680851 C166.078906,132.196806 166.155134,131.735818 166.202044,131.297872 C166.858787,132.173763 167.920114,132.945919 169.386058,133.614362 C170.852002,134.282805 172.276879,134.617021 173.66073,134.617021 C175.771689,134.617021 177.395931,134.081122 178.533504,133.009309 C179.671076,131.937495 180.239854,130.43352 180.239854,128.49734 C180.239854,126.837758 179.665213,125.506654 178.515912,124.503989 C177.366612,123.501325 175.795144,123 173.80146,123 Z M208.596934,115.013298 L191.181606,135.515957 C191.040875,135.423758 190.876692,135.37766 190.689051,135.37766 L190.161314,135.515957 C190.231679,134.709216 190.290316,132.992034 190.337226,130.364362 C190.384136,127.736689 190.407591,125.247352 190.407591,122.896277 C190.407591,121.029246 190.401728,118.879888 190.39,116.448138 C190.378272,114.016389 190.302044,112.016852 190.161314,110.449468 C190.677326,110.541667 191.251968,110.587766 191.885255,110.587766 C192.518543,110.587766 193.093185,110.541667 193.609197,110.449468 C193.609197,110.703015 193.568151,111.71719 193.486058,113.492021 C193.403966,115.266853 193.36292,116.661342 193.36292,117.675532 C193.36292,119.842209 193.380511,121.772598 193.415693,123.466755 C193.450876,125.160913 193.503649,127.114351 193.574015,129.327128 L209.828321,110.484043 L210.813431,110.587766 C211.259078,110.587766 211.634354,110.541667 211.93927,110.449468 C211.868905,111.25621 211.810268,112.944579 211.763358,115.514628 C211.716447,118.084676 211.692993,120.545201 211.692993,122.896277 C211.692993,124.786357 211.698856,126.970289 211.710584,129.448138 C211.722311,131.925988 211.798539,133.948574 211.93927,135.515957 C211.423258,135.423758 210.848616,135.37766 210.215328,135.37766 C209.582041,135.37766 209.007399,135.423758 208.491387,135.515957 C208.561752,133.257081 208.620389,131.315168 208.667299,129.69016 C208.714209,128.065151 208.737664,126.365257 208.737664,124.590426 C208.737664,123.20744 208.720073,121.703466 208.684891,120.078457 C208.649708,118.453449 208.620389,116.76508 208.596934,115.013298 Z M237.657664,115.013298 L220.242336,135.515957 C220.101605,135.423758 219.937422,135.37766 219.749781,135.37766 L219.222044,135.515957 C219.292409,134.709216 219.351046,132.992034 219.397956,130.364362 C219.444866,127.736689 219.468321,125.247352 219.468321,122.896277 C219.468321,121.029246 219.462457,118.879888 219.45073,116.448138 C219.439002,114.016389 219.362774,112.016852 219.222044,110.449468 C219.738056,110.541667 220.312698,110.587766 220.945985,110.587766 C221.579273,110.587766 222.153915,110.541667 222.669927,110.449468 C222.669927,110.703015 222.628881,111.71719 222.546788,113.492021 C222.464695,115.266853 222.42365,116.661342 222.42365,117.675532 C222.42365,119.842209 222.441241,121.772598 222.476423,123.466755 C222.511606,125.160913 222.564379,127.114351 222.634745,129.327128 L238.889051,110.484043 L239.874161,110.587766 C240.319808,110.587766 240.695084,110.541667 241,110.449468 C240.929635,111.25621 240.870998,112.944579 240.824088,115.514628 C240.777177,118.084676 240.753723,120.545201 240.753723,122.896277 C240.753723,124.786357 240.759586,126.970289 240.771314,129.448138 C240.783041,131.925988 240.859269,133.948574 241,135.515957 C240.483988,135.423758 239.909346,135.37766 239.276058,135.37766 C238.642771,135.37766 238.068129,135.423758 237.552117,135.515957 C237.622482,133.257081 237.681119,131.315168 237.728029,129.69016 C237.774939,128.065151 237.798394,126.365257 237.798394,124.590426 C237.798394,123.20744 237.780803,121.703466 237.74562,120.078457 C237.710438,118.453449 237.681119,116.76508 237.657664,115.013298 Z" id="ВКУС-ГРУЗИИ"></path> <path d="M19.8705219,40.3469516 L19.8705219,44.4500314 C19.8705219,45.2763502 19.9277439,46.9503331 20.0421895,49.4720302 C20.1566351,51.9937273 20.328301,54.2945632 20.5571922,56.3746072 C20.9863633,59.4234387 21.4870554,62.4294845 22.0592835,65.3928347 L22.5742862,67.2306725 L19.441353,67.2306725 C19.2410731,67.2306725 18.768992,67.1950559 18.0250955,67.1238215 C17.2811989,67.0525871 16.272662,66.9671071 14.9994544,66.867379 C13.7262469,66.7676509 12.5317386,66.7177876 11.4158938,66.7177876 C10.6147744,66.7177876 9.5704738,66.8032675 8.28296054,66.97423 C6.99544728,67.1451926 6.30878384,67.2306725 6.22294963,67.2306725 L2.832515,67.4016342 L3.34751773,65.3928347 C3.74807741,64.0251346 4.06279815,62.5434817 4.2916894,60.9478316 C4.52058064,59.3521814 4.6922465,57.7850485 4.80669213,56.2463859 C4.92113775,54.7077233 5.00697068,53.0907271 5.06419349,51.3953488 C5.1214163,49.6999706 5.19294374,47.9120144 5.27877796,46.0314268 C5.39322358,44.0938516 5.45044554,42.726172 5.45044554,41.928347 C5.45044554,40.9025719 5.44329279,40.1403754 5.42898709,39.6417348 C5.41468139,39.1430941 5.39322315,38.5091176 5.36461175,37.7397863 C5.33600034,36.970455 5.30738937,36.1014086 5.27877796,35.132621 C5.25016655,34.1638334 5.22155558,33.2235537 5.19294417,32.3117536 L5.19294417,24.4047769 C5.19294417,22.1252767 5.15002771,20.1164973 5.06419349,18.3783784 C4.97835927,16.6402595 4.84245713,14.9021667 4.656483,13.1640478 C4.47050886,11.4259289 4.14863537,9.78756269 3.69085288,8.24890006 C3.2902932,6.82421245 2.41765842,4.8296797 1.07292235,2.26524199 L0,0.341923319 L2.36042917,0.598365808 C4.93545568,0.797822074 7.11704264,0.926042036 8.9052555,0.983029541 C10.6934684,1.04001705 13.0896376,1.06851037 16.0938352,1.06851037 L20.4713584,1.06851037 C23.4183332,1.06851037 26.9303306,0.89042709 31.0074559,0.534255185 C35.0845812,0.178083281 37.0801968,0 36.9943626,0 L41.9298054,0 C43.8181582,0 46.1141891,0.406029881 48.8179669,1.21810182 C51.5217447,2.03017376 53.7033317,3.29100339 55.3627932,5.00062854 C56.6789179,6.45380991 57.7160658,8.29162937 58.474268,10.514142 C59.2324703,12.7366547 59.6115657,14.4320076 59.6115657,15.6002514 L59.6115657,19.2759271 C59.6115657,23.0086086 58.6745563,26.349451 56.8005092,29.2985544 C54.9264621,32.2476577 52.2298776,35.0043869 48.7106747,37.5688246 C46.4217622,39.2784498 43.6536502,40.5036628 40.4062557,41.2445003 C37.1588611,41.9853379 33.947279,42.3557511 30.771413,42.3557511 C28.5683347,42.3557511 26.7229268,42.1847912 25.2351337,41.8428661 L19.8705219,40.3469516 Z M21.2009456,36.2438718 L24.4197127,36.2438718 C25.7072259,36.2438718 27.5812449,35.8307186 30.0418258,35.0043997 C32.5024067,34.1780809 34.591008,33.0668413 36.3076923,31.6706474 C38.4821591,29.8470472 40.1988177,27.6103212 41.4577196,24.9604023 C42.7166214,22.3104833 43.3460629,19.7745774 43.3460629,17.3526084 L43.3460629,16.5405405 C43.3460629,16.1131343 43.1243279,15.1229912 42.6808511,13.5700817 C42.2373743,12.0171722 41.686613,10.8560692 41.0285506,10.0867379 C39.0543637,7.75025021 36.6653471,6.58202388 33.8614294,6.58202388 L31.7155847,6.58202388 C28.3680502,6.58202388 25.4211196,8.53381664 22.8747045,12.4374607 C21.7016369,14.2895546 20.8933768,16.6758706 20.4499,19.5964802 C20.0064232,22.5170898 19.7846881,24.5899792 19.7846881,25.8152106 L19.7846881,35.0043997 L21.2009456,36.2438718 Z M85.8767049,2.0087995 C85.8767049,1.86633074 85.5548314,3.1129137 84.9110747,5.7485858 C84.2673181,8.38425789 83.9168336,10.4713939 83.8596108,12.0100566 C83.8309994,13.4632379 83.759472,15.4577707 83.6450264,17.9937146 C83.5305807,20.5296586 83.4232896,22.6737813 83.3231497,24.4261471 L83.1729405,27.0546826 L83.1729405,41.8428661 C83.1729405,43.1535787 83.3374536,45.0483848 83.6664848,47.5273413 C83.995516,50.0062977 84.6178047,52.1432971 85.5333697,53.9384035 C87.3358883,57.3006663 90.0968475,58.9817725 93.8163302,58.9817725 L98.1938534,58.9817725 C103.172238,58.9817725 107.835827,55.6053135 112.184761,48.8522942 C113.357828,47.0856815 114.266227,44.8845722 114.909984,42.2489001 C115.55374,39.613228 115.990058,36.9847187 116.218949,34.3632935 C116.44784,31.7418683 116.562284,29.2487024 116.562284,26.8837209 C116.562284,25.9149334 116.555131,25.2952035 116.540826,25.0245129 C116.52652,24.7538222 116.505062,24.490259 116.47645,24.2338152 L116.47645,21.0282841 C116.47645,18.0364401 116.440687,15.7142341 116.369158,14.0615965 C116.29763,12.4089588 116.104505,10.4714127 115.78978,8.24890006 C115.675334,7.33709999 115.503668,6.4039436 115.274777,5.44940289 C115.045886,4.49486219 114.888526,3.67567909 114.802691,2.99182904 L114.631024,0.683846637 L117.635206,0.897548712 C120.668015,1.01152372 122.656478,1.06851037 123.600655,1.06851037 C124.487608,1.06851037 125.617742,1.04001705 126.991089,0.983029541 C128.364437,0.926042036 129.49457,0.897548712 130.381524,0.897548712 L133.085288,0.897548712 L132.913621,2.43620365 C132.541672,4.97214761 132.219799,7.11627031 131.947991,8.86863608 C131.676182,10.6210018 131.468753,12.2237514 131.325696,13.6769327 C130.81069,19.9455583 130.553191,25.3307967 130.553191,29.8328096 L130.553191,49.45066 C130.553191,53.6107478 130.724857,56.8874802 131.068194,59.2809554 C131.468754,61.2185305 132.312778,63.2842966 133.600291,65.4783155 L134.844881,67.3161534 L130.639025,67.1451917 C130.209854,67.1451917 129.294303,67.0739584 127.892344,66.9314896 C126.490385,66.7890209 125.231502,66.7177876 124.115657,66.7177876 C122.971201,66.7177876 121.569263,66.8175142 119.909802,67.0169705 C118.25034,67.2164267 117.492149,67.3161534 117.635206,67.3161534 L115.532279,67.487115 L115.78978,62.7856694 C115.78978,61.674413 115.603809,61.0902999 115.23186,61.0333124 C115.03158,61.0333124 114.631027,61.154409 114.030187,61.3966059 C113.429348,61.6388028 113.014489,61.7741461 112.785597,61.8026398 C112.671152,61.8881211 109.674125,63.0777281 109.116203,63.2344437 C108.844903,63.3106496 104.595585,65.119119 100.227151,66.1542825 C95.6120041,67.2479083 90.8639058,67.5708349 90.5331879,67.6367065 C89.8894312,67.7649284 89.0811711,67.8575317 88.1083833,67.9145192 L81.8425168,68 C80.3261123,68 78.6166065,67.6652034 76.713948,66.9956003 C74.8112895,66.3259971 73.2448385,65.378594 72.0145481,64.1533627 C71.0131489,63.0421063 70.1762778,61.6957967 69.5039098,60.1143935 C68.8315418,58.5329902 68.4953628,57.3718872 68.4953628,56.6310497 L68.4953628,11.7536141 C68.4953628,10.1579639 68.1091146,8.34863781 67.3366067,6.3255814 C67.1649382,5.84118761 66.8788285,5.25707444 66.4782688,4.57322439 C66.0777091,3.88937433 65.7772938,3.33375449 65.577014,2.90634821 L64.6328423,0.512884978 L67.594108,0.897548712 C70.8558083,1.23947374 73.4737126,1.41043369 75.4478996,1.41043369 C75.9629049,1.41043369 77.4220647,1.33920038 79.8254228,1.19673162 C82.2287809,1.05426285 83.344609,0.983029541 83.1729405,0.983029541 L86.3487907,0.897548712 L85.8767049,2.0087995 Z M158.020004,38.5091138 L157.848336,42.4412319 C157.848336,43.2960445 157.912711,45.1766039 158.041462,48.0829667 C158.170213,50.9893294 158.406254,53.7246886 158.749591,56.2891263 C159.007093,58.4261578 159.235981,60.0930173 159.436261,61.2897549 C159.636541,62.4864925 159.994178,63.8541721 160.509183,65.3928347 L161.11002,67.1451917 L158.234588,66.97423 C158.291811,66.97423 157.261816,66.8887501 155.144572,66.7177876 C153.027328,66.546825 151.324975,66.4613451 150.037461,66.4613451 C149.551067,66.4613451 149.007459,66.4969617 148.406619,66.5681961 C147.80578,66.6394305 147.297935,66.7035405 146.88307,66.760528 C146.468204,66.8175155 146.067651,66.8673788 145.681397,66.9101194 C145.295143,66.9528601 145.073408,66.97423 145.016185,66.97423 L141.411166,67.4016342 L141.797418,65.5637964 C142.798817,60.2924522 143.342425,53.9954274 143.42826,46.672533 C143.42826,44.4500203 143.421107,42.7190508 143.406801,41.4795726 L143.363884,37.7611565 C143.349579,36.5216783 143.342426,34.7622155 143.342426,32.4827153 L143.342426,24.7039598 C143.371037,24.219566 143.392496,23.7209328 143.406801,23.2080453 C143.421107,22.6951577 143.42826,21.6409047 143.42826,20.0452546 C143.42826,15.0018604 143.056317,11.1267682 142.31242,8.41986172 C141.768804,6.62475532 140.910474,4.63022258 139.737407,2.43620365 L138.621568,0.341923319 L141.067831,0.683846637 C142.89896,0.826315399 144.772979,0.926042036 146.689944,0.983029541 C148.606908,1.04001705 150.352177,1.08988036 151.925805,1.13262099 C153.499432,1.17536162 155.244702,1.21097828 157.161666,1.23947203 L159.092926,1.23947203 C161.038502,1.23947203 163.627795,1.06138875 166.860884,0.705216845 C170.093973,0.34904494 173.040903,0.170961659 175.701764,0.170961659 L180.723041,0.170961659 C183.412513,0.170961659 185.658474,0.498634896 187.460993,1.1539912 C189.263511,1.8093475 190.908643,2.97757383 192.396436,4.65870522 C194.742571,7.33711794 195.915621,10.2434371 195.915621,13.3777498 L195.915621,16.1986172 C195.915621,18.2786611 195.622359,20.1378506 195.035825,21.7762414 C194.449291,23.4146321 193.512281,25.1171083 192.224768,26.8837209 C191.45226,27.9379898 190.551014,28.9210095 189.521004,29.8328096 C188.490993,30.7446096 187.51822,31.4569428 186.602655,31.9698303 L183.898891,33.1665619 C182.6686,33.8219182 182.053464,34.4345247 182.053464,35.0043997 C182.053464,35.3748185 182.203672,35.6882451 182.504092,35.9446889 C182.804511,36.2011326 183.083468,36.4433259 183.340971,36.6712759 C185.086267,38.0104823 186.230706,39.0077487 186.774323,39.663105 C187.575442,40.6033988 188.333633,41.6220352 189.048918,42.7190446 C189.764203,43.8160541 190.372186,44.7919505 190.872886,45.646763 C191.373586,46.5015756 191.917194,47.4418553 192.503728,48.4676304 C193.090262,49.4934055 193.440746,50.1202587 193.555192,50.3482087 L195.228951,53.2972973 C195.400619,53.5252473 195.908464,54.1663471 196.7525,55.220616 C197.596537,56.2748848 198.562157,57.3505078 199.649391,58.4475173 C200.736624,59.5445268 201.752314,60.4064498 202.69649,61.0333124 C203.411775,61.4892124 204.384549,61.9735989 205.614839,62.4864865 C206.84513,62.999374 207.631931,63.3555406 207.975268,63.5549969 L209.649027,64.4098052 L208.91944,65.0509114 C208.747771,65.1648864 208.046803,65.3785863 206.816512,65.6920176 C205.586222,66.0054489 204.327339,66.2618888 203.039825,66.4613451 C201.29453,66.6892951 199.005652,66.8032684 196.173122,66.8032684 L193.211857,66.8032684 C189.234871,66.8032684 186.187802,65.5495621 184.070558,63.0421119 C183.29805,62.1018181 182.632845,61.2114016 182.074923,60.370836 C181.517,59.5302703 180.830337,58.3762906 180.014912,56.9088624 C179.199487,55.4414341 178.498518,54.1734811 177.911984,53.1049654 C177.32545,52.0364497 176.817605,51.20302 176.388434,50.6046512 L175.015094,48.5103708 C173.298409,45.3760581 171.7105,43.2105654 170.251318,42.0138278 C167.533235,39.7913151 165.129913,38.6800754 163.04128,38.6800754 L158.020004,38.5091138 Z M157.762502,33.3375236 L160.337516,33.3375236 C161.453361,33.3375236 163.398907,33.1167003 166.174213,32.6750471 C168.94952,32.233394 171.195482,31.4142109 172.912166,30.2174733 C174.82913,28.7927857 176.417039,27.0119529 177.675941,24.8749214 C178.934843,22.73789 179.564284,20.8715772 179.564284,19.2759271 L179.564284,16.7115022 C179.564284,14.1470645 178.949148,12.1382851 177.718858,10.6851037 C177.032184,9.80179739 176.088022,9.08234093 174.886343,8.52671276 C173.684664,7.97108459 172.518767,7.56505471 171.388616,7.30861094 C170.258466,7.05216717 169.59326,6.9239472 169.392981,6.9239472 L167.375887,6.9239472 C166.43171,6.9239472 165.351646,7.20888045 164.135661,7.7787555 C162.919676,8.34863055 161.825306,9.37439025 160.852519,10.8560654 C159.593617,12.7651468 158.763898,14.403513 158.363339,15.7712131 C157.962779,17.1389132 157.762502,18.1504262 157.762502,18.8057825 L157.762502,33.3375236 Z M235.270413,1.75235701 C234.61235,5.05763228 234.183186,7.62203153 233.982906,9.44563168 C233.610958,12.2095257 233.424986,15.2725581 233.424986,18.6348209 L233.424986,41.415462 C233.424986,41.3299807 233.489361,42.6406737 233.618112,45.3475801 C233.746864,48.0544866 233.925682,50.6473792 234.154574,53.1263356 C234.240408,54.6080108 234.419226,56.4885702 234.691035,58.7680704 C234.962843,61.0475706 235.184578,62.8711434 235.356247,64.2388435 L236,67.0597109 L233.51082,67.0597109 C232.709701,67.0597109 231.765539,67.0383409 230.678305,66.9956003 C229.591072,66.9528596 228.496702,66.9101196 227.395163,66.867379 C226.293624,66.8246384 225.342309,66.8032684 224.541189,66.8032684 C223.682847,66.8032684 223.067711,66.817515 222.695763,66.8460088 C222.323815,66.8745026 221.873192,66.9029959 221.343881,66.9314896 C220.81457,66.9599834 220.092143,67.0027234 219.176578,67.0597109 L216.043644,67.4016342 L216.472813,64.7089881 C216.787539,62.9423754 217.202398,59.2239965 217.717403,53.5537398 C217.86046,51.6161646 218.017821,49.7356052 218.189489,47.912005 C218.361157,46.0884049 218.49706,44.3004487 218.597199,42.548083 C218.697339,40.7957172 218.747409,38.7513211 218.747409,36.4148334 L218.747409,25.9861722 C218.747409,22.1395157 218.547132,17.9652435 218.146572,13.4632307 C217.889069,10.3574117 217.674487,8.13493232 217.502819,6.79572596 C217.33115,5.4565196 216.987819,3.91788005 216.472813,2.17976116 L216.043644,0.341923319 L218.146572,0.598365808 C220.492707,0.911797084 222.981862,1.06851037 225.614112,1.06851037 C228.732755,1.06851037 231.250521,0.911797084 233.167485,0.598365808 L235.527914,0.170961659 L235.270413,1.75235701 Z" id="PURI"></path> </g> </g> </g> </svg> 